<?xml version="1.0" encoding="UTF-8"?>
<svg width="1985px" height="306px" viewBox="0 0 1985 306" version="1.1" xmlns="http://www.w3.org/2000/svg" xmlns:xlink="http://www.w3.org/1999/xlink">
    <title>Supabase</title>
    <defs>
        <linearGradient x1="24.7760164%" y1="20.686905%" x2="62.3775852%" y2="41.3448086%" id="linearGradient-1">
            <stop stop-color="#249361" offset="0%"></stop>
            <stop stop-color="#3ECF8E" offset="100%"></stop>
        </linearGradient>
    </defs>
    <g id="Page-1" stroke="none" stroke-width="1" fill="none" fill-rule="evenodd">
        <g id="Artboard" transform="translate(-5294.000000, -2285.000000)">
            <g id="Supabase" transform="translate(5294.000000, 2285.000000)">
                <g id="Group" transform="translate(827.000000, 0.000000)" fill-rule="nonzero">
                    <path d="M13.225,186.1975 C5.92105,186.1975 0,180.278 0,172.9765 C0,170.028 0.96525,167.3055 2.597,165.1065 L7.6903,157.9565 L123.138,2.07266 C124.054,0.81638 125.5375,1.13686838e-13 127.212,1.13686838e-13 C129.9945,1.13686838e-13 132.25,2.25497 132.25,5.0366 L132.25,5.60325 L132.25,186.1975 L13.225,186.1975 Z" id="Path-Copy-4" fill="#3ECF8E"></path>
                    <path d="M251.275,118.927 C258.579,118.927 264.5,124.8465 264.5,132.1485 C264.5,135.0965 263.535,137.819 261.903,140.018 L256.8095,147.168 L141.362,303.052 C140.4455,304.308 138.9625,305.1245 137.288,305.1245 C134.5055,305.1245 132.25,302.8695 132.25,300.088 L132.25,299.5215 L132.25,118.927 L251.275,118.927 Z" id="Path-Copy-5" fill="url(#linearGradient-1)"></path>
                </g>
                <text id="Awesome-supabase" font-family="OpticianSans-Regular, Optician Sans" font-size="162.5625" font-weight="normal" fill="#FC60A8">
                    <tspan x="82.5564063" y="202.5">Awesome        supabase</tspan>
                </text>
            </g>
        </g>
    </g>
</svg>